<svg width="32" height="32" viewBox="0 0 32 32" fill="none" xmlns="http://www.w3.org/2000/svg">
<path d="M31.983 16.2993C31.983 14.9883 31.8741 14.0316 31.6385 13.0395H16.3186V18.9568H25.3111C25.1298 20.4273 24.1508 22.6419 21.9751 24.13L21.9446 24.3281L26.7885 27.9951L27.1241 28.0278C30.2062 25.2462 31.983 21.1537 31.983 16.2993" fill="#4285F4"/>
<path d="M16.3188 31.8901C20.7243 31.8901 24.4228 30.4727 27.1243 28.0278L21.9753 24.1301C20.5975 25.0691 18.7481 25.7246 16.3188 25.7246C12.0038 25.7246 8.34158 22.9431 7.03609 19.0986L6.84473 19.1145L1.80799 22.9236L1.74213 23.1025C4.42535 28.3112 9.93692 31.8901 16.3188 31.8901Z" fill="#34A853"/>
<path d="M7.03605 19.0986C6.69158 18.1065 6.49223 17.0434 6.49223 15.945C6.49223 14.8465 6.69158 13.7835 7.01792 12.7914L7.0088 12.5801L1.90895 8.70984L1.74209 8.7874C0.636208 10.9489 0.00164795 13.3761 0.00164795 15.945C0.00164795 18.5139 0.636208 20.941 1.74209 23.1025L7.03605 19.0986" fill="#FBBC05"/>
<path d="M16.3187 6.1654C19.3827 6.1654 21.4495 7.45872 22.628 8.53951L27.233 4.14574C24.4048 1.57682 20.7243 3.05176e-05 16.3187 3.05176e-05C9.93691 3.05176e-05 4.42535 3.57878 1.74213 8.78745L7.01796 12.7915C8.34157 8.94696 12.0038 6.1654 16.3187 6.1654" fill="#EB4335"/>
</svg>
